<?xml version="1.0" encoding="utf-8"?>
<!-- Generator: Adobe Illustrator 21.1.0, SVG Export Plug-In . SVG Version: 6.00 Build 0)  -->
<svg version="1.1" xmlns="http://www.w3.org/2000/svg" xmlns:xlink="http://www.w3.org/1999/xlink" x="0px" y="0px"
	 viewBox="0 0 180 50" style="enable-background:new 0 0 180 50;" xml:space="preserve">
<style type="text/css">
	.st0{fill:#FDE428;}
	.st1{fill:#FFFFFF;}
	.st2{display:none;}
	.st3{display:inline;fill:#FFFFFF;}
	.st4{font-family:'Montserrat-Bold';}
	.st5{font-size:12px;}
	.st6{letter-spacing:3.3;}
</style>
<g id="Counsel">
	<g>
		<path class="st0" d="M17.2,3.6c2.3,0,4.6,0.5,6.9,1.5c2.3,1,4.2,2.3,5.8,3.9l-4.6,5.6c-1-1.3-2.2-2.3-3.7-3
			c-1.4-0.7-2.8-1.1-4.3-1.1c-2.5,0-4.6,0.9-6.3,2.7c-1.7,1.8-2.5,4-2.5,6.6c0,2.7,0.8,4.9,2.5,6.7c1.7,1.8,3.8,2.7,6.3,2.7
			c1.3,0,2.7-0.3,4.1-1c1.4-0.7,2.7-1.6,3.8-2.7l4.7,5c-1.7,1.8-3.7,3.2-6.1,4.2c-2.3,1.1-4.6,1.6-7,1.6c-4.7,0-8.7-1.6-11.8-4.7
			c-3.2-3.1-4.7-7-4.7-11.7c0-4.6,1.6-8.4,4.8-11.5C8.4,5.1,12.4,3.6,17.2,3.6z"/>
		<path class="st0" d="M44.3,10.9c4,0,7.2,1.1,9.6,3.4c2.4,2.3,3.6,5.3,3.6,9.1c0,3.8-1.2,6.8-3.6,9.1c-2.4,2.3-5.6,3.5-9.6,3.5
			c-4,0-7.2-1.2-9.6-3.5c-2.4-2.3-3.6-5.4-3.6-9.1c0-3.8,1.2-6.8,3.6-9.1C37.1,12.1,40.3,10.9,44.3,10.9z M44.3,17.2
			c-1.6,0-2.9,0.6-3.9,1.8c-1,1.2-1.5,2.7-1.5,4.6c0,1.9,0.5,3.5,1.5,4.6c1,1.2,2.3,1.8,3.9,1.8c1.6,0,2.9-0.6,3.9-1.8
			c1-1.2,1.5-2.7,1.5-4.6c0-1.9-0.5-3.4-1.5-4.6C47.2,17.8,45.9,17.2,44.3,17.2z"/>
		<path class="st0" d="M85.3,11.2v24.6h-7.8v-4.1c-1.6,2.9-4.3,4.4-7.9,4.4c-2.6,0-4.7-0.9-6.3-2.6c-1.6-1.7-2.4-4-2.4-6.9V11.2h7.8
			v13.3c0,1.5,0.4,2.6,1.1,3.4c0.7,0.8,1.7,1.3,2.9,1.3c1.5,0,2.6-0.6,3.5-1.7c0.8-1.1,1.3-2.5,1.3-4.2V11.2H85.3z"/>
		<path class="st0" d="M107.4,10.8c2.7,0,4.8,0.9,6.4,2.6c1.6,1.7,2.4,4,2.4,6.9v15.5h-7.7V22.5c0-1.4-0.4-2.6-1.1-3.4
			c-0.8-0.8-1.8-1.3-3.1-1.3c-1.4,0-2.5,0.5-3.4,1.4c-0.9,0.9-1.4,2.1-1.6,3.6v13h-7.8V11.2h7.8v4C101,12.4,103.7,10.9,107.4,10.8z"
			/>
		<path class="st0" d="M130.5,10.8c3.6,0,6.9,0.9,10,2.8l-2.7,5.1c-3-1.6-5.6-2.5-7.6-2.5c-1.6,0-2.4,0.6-2.4,1.7
			c0,0.6,0.4,1.1,1.3,1.5c0.9,0.4,1.9,0.8,3.2,1.1c1.3,0.3,2.5,0.8,3.8,1.3c1.2,0.5,2.3,1.3,3.2,2.4c0.9,1.1,1.3,2.4,1.3,4
			c0,2.5-0.9,4.4-2.8,5.8c-1.9,1.4-4.4,2.1-7.4,2.1c-4.3,0-7.9-1.2-10.9-3.5l2.5-5c2.9,2,5.7,3.1,8.6,3.1c1.8,0,2.7-0.6,2.7-1.7
			c0-0.6-0.4-1.2-1.3-1.6c-0.9-0.4-1.9-0.8-3.1-1.1c-1.2-0.3-2.5-0.8-3.7-1.3c-1.2-0.5-2.3-1.3-3.1-2.4c-0.9-1.1-1.3-2.4-1.3-4
			c0-2.5,0.9-4.4,2.7-5.8C125.2,11.5,127.6,10.8,130.5,10.8z"/>
		<path class="st0" d="M155.5,10.9c4.2,0,7.4,1.3,9.5,3.9c2.1,2.6,3,6.2,2.8,10.8h-17.1c0.4,1.5,1.1,2.6,2.1,3.4
			c1,0.8,2.2,1.2,3.6,1.2c2.2,0,4.2-0.8,5.8-2.5l4.1,4.1c-2.6,2.9-6.1,4.3-10.6,4.3c-3.9,0-7.1-1.1-9.4-3.4
			c-2.3-2.3-3.5-5.3-3.5-9.1c0-3.8,1.2-6.9,3.5-9.2C148.7,12.1,151.7,10.9,155.5,10.9z M150.6,21.4h9.7c0-1.5-0.4-2.7-1.3-3.6
			c-0.9-0.9-2-1.4-3.4-1.4c-1.3,0-2.4,0.4-3.3,1.3C151.4,18.7,150.8,19.9,150.6,21.4z"/>
		<path class="st0" d="M180,35.8h-7.8V1.9h7.8V35.8z"/>
	</g>
	<g>
		<path class="st1" d="M8.8,41.2c1.3,0,2.4,0.4,3.2,1.2c0.9,0.8,1.3,1.9,1.3,3.1c0,1.2-0.4,2.3-1.3,3.1c-0.9,0.8-1.9,1.3-3.2,1.3
			s-2.4-0.4-3.2-1.2c-0.9-0.8-1.3-1.9-1.3-3.1c0-1.2,0.4-2.3,1.3-3.1C6.5,41.6,7.5,41.2,8.8,41.2z M8.9,43c-0.7,0-1.2,0.2-1.7,0.7
			c-0.5,0.5-0.7,1.1-0.7,1.8c0,0.7,0.2,1.3,0.7,1.8c0.5,0.5,1,0.7,1.7,0.7s1.2-0.2,1.6-0.7s0.7-1.1,0.7-1.8c0-0.7-0.2-1.3-0.7-1.8
			C10.1,43.2,9.5,43,8.9,43z"/>
		<path class="st1" d="M27.4,49.8h-2.2l-1.6-5.9l-1.6,5.9h-2.2l-2.7-8.5h2.3l1.6,6.3l1.6-6.3h2.1l1.6,6.3l1.6-6.3h2.2L27.4,49.8z"/>
		<path class="st1" d="M42.3,49.8h-1.9l-3.9-5.2v5.2h-2v-8.5h1.9l3.9,5.3v-5.3h2V49.8z"/>
		<path class="st1" d="M58.3,47v2.8h-2.1v-2.7L53,41.2h2.1l2,3.7l2-3.7h2.1L58.3,47z"/>
		<path class="st1" d="M69.5,41.2c1.3,0,2.4,0.4,3.2,1.2c0.9,0.8,1.3,1.9,1.3,3.1c0,1.2-0.4,2.3-1.3,3.1c-0.9,0.8-1.9,1.3-3.2,1.3
			s-2.4-0.4-3.2-1.2c-0.9-0.8-1.3-1.9-1.3-3.1c0-1.2,0.4-2.3,1.3-3.1C67.1,41.6,68.2,41.2,69.5,41.2z M69.5,43
			c-0.7,0-1.2,0.2-1.7,0.7c-0.5,0.5-0.7,1.1-0.7,1.8c0,0.7,0.2,1.3,0.7,1.8c0.5,0.5,1,0.7,1.7,0.7s1.2-0.2,1.6-0.7s0.7-1.1,0.7-1.8
			c0-0.7-0.2-1.3-0.7-1.8C70.7,43.2,70.2,43,69.5,43z"/>
		<path class="st1" d="M86.3,41.2v4.9c0,1.1-0.3,2-1,2.7s-1.6,1-2.8,1c-1.2,0-2.1-0.3-2.8-1s-1-1.6-1-2.7v-4.9h2.1v4.9
			c0,0.6,0.2,1,0.5,1.4S82,48,82.5,48c0.5,0,0.9-0.2,1.2-0.5s0.5-0.8,0.5-1.4v-4.9H86.3z"/>
		<path class="st1" d="M96.5,49.8l-1.2-2.4h-0.1h-1.6v2.4h-2.1v-8.5h3.8c1.1,0,2,0.3,2.6,0.8c0.6,0.5,0.9,1.2,0.9,2.2
			c0,1.3-0.5,2.2-1.5,2.7l1.8,2.8H96.5z M93.6,45.7h1.6c0.5,0,0.8-0.1,1.1-0.4c0.3-0.2,0.4-0.6,0.4-1c0-0.4-0.1-0.8-0.4-1
			c-0.3-0.2-0.6-0.3-1.1-0.3h-1.6V45.7z"/>
		<path class="st1" d="M114.1,41.2c0.6,0,1.2,0.1,1.8,0.4s1.1,0.6,1.5,1l-1.2,1.5c-0.3-0.3-0.6-0.6-1-0.8c-0.4-0.2-0.8-0.3-1.1-0.3
			c-0.7,0-1.2,0.2-1.7,0.7c-0.4,0.5-0.7,1.1-0.7,1.8c0,0.7,0.2,1.3,0.7,1.8s1,0.7,1.7,0.7c0.4,0,0.7-0.1,1.1-0.3
			c0.4-0.2,0.7-0.4,1-0.7l1.2,1.3c-0.5,0.5-1,0.8-1.6,1.1c-0.6,0.3-1.2,0.4-1.9,0.4c-1.3,0-2.3-0.4-3.2-1.3
			c-0.8-0.8-1.3-1.9-1.3-3.1c0-1.2,0.4-2.3,1.3-3.1C111.7,41.6,112.8,41.2,114.1,41.2z"/>
		<path class="st1" d="M125.9,41.2c1.3,0,2.4,0.4,3.2,1.2c0.9,0.8,1.3,1.9,1.3,3.1c0,1.2-0.4,2.3-1.3,3.1c-0.9,0.8-1.9,1.3-3.2,1.3
			s-2.4-0.4-3.2-1.2c-0.9-0.8-1.3-1.9-1.3-3.1c0-1.2,0.4-2.3,1.3-3.1C123.5,41.6,124.6,41.2,125.9,41.2z M125.9,43
			c-0.7,0-1.2,0.2-1.7,0.7c-0.5,0.5-0.7,1.1-0.7,1.8c0,0.7,0.2,1.3,0.7,1.8c0.5,0.5,1,0.7,1.7,0.7s1.2-0.2,1.6-0.7s0.7-1.1,0.7-1.8
			c0-0.7-0.2-1.3-0.7-1.8C127.1,43.2,126.5,43,125.9,43z"/>
		<path class="st1" d="M142.7,41.2v4.9c0,1.1-0.3,2-1,2.7s-1.6,1-2.8,1c-1.2,0-2.1-0.3-2.8-1s-1-1.6-1-2.7v-4.9h2.1v4.9
			c0,0.6,0.2,1,0.5,1.4s0.7,0.5,1.3,0.5c0.5,0,0.9-0.2,1.2-0.5s0.5-0.8,0.5-1.4v-4.9H142.7z"/>
		<path class="st1" d="M152.9,49.8l-1.2-2.4h-0.1h-1.6v2.4h-2.1v-8.5h3.8c1.1,0,2,0.3,2.6,0.8c0.6,0.5,0.9,1.2,0.9,2.2
			c0,1.3-0.5,2.2-1.5,2.7l1.8,2.8H152.9z M149.9,45.7h1.6c0.5,0,0.8-0.1,1.1-0.4c0.3-0.2,0.4-0.6,0.4-1c0-0.4-0.1-0.8-0.4-1
			c-0.3-0.2-0.6-0.3-1.1-0.3h-1.6V45.7z"/>
		<path class="st1" d="M163.3,41.1c1.3,0,2.4,0.3,3.3,1l-0.8,1.7c-0.4-0.3-0.9-0.5-1.4-0.6c-0.5-0.2-0.9-0.2-1.3-0.2
			c-0.6,0-0.9,0.2-0.9,0.6c0,0.3,0.2,0.5,0.5,0.6s0.7,0.3,1.1,0.4c0.4,0.1,0.9,0.3,1.3,0.4c0.4,0.2,0.8,0.4,1.1,0.8
			c0.3,0.4,0.5,0.8,0.5,1.4c0,0.8-0.3,1.5-0.9,1.9c-0.6,0.5-1.4,0.7-2.4,0.7c-0.7,0-1.4-0.1-2.1-0.4c-0.7-0.2-1.3-0.6-1.8-1l0.8-1.7
			c0.4,0.4,0.9,0.7,1.5,0.9c0.6,0.2,1.1,0.4,1.5,0.4c0.3,0,0.6-0.1,0.8-0.2c0.2-0.1,0.3-0.3,0.3-0.6c0-0.2-0.1-0.4-0.3-0.6
			s-0.5-0.3-0.8-0.4s-0.7-0.2-1.1-0.3c-0.4-0.1-0.7-0.3-1.1-0.4c-0.3-0.2-0.6-0.4-0.8-0.7c-0.2-0.3-0.3-0.7-0.3-1.2
			c0-0.8,0.3-1.4,0.9-1.9C161.5,41.4,162.3,41.1,163.3,41.1z"/>
		<path class="st1" d="M178,42.9h-4.4v1.7h4v1.7h-4v1.7h4.6v1.7h-6.7v-8.5h6.6V42.9z"/>
	</g>
</g>
<g id="Own_your_course" class="st2">
	<text transform="matrix(1.4983 0 0 1 4.3502 49.9009)"><tspan x="0" y="0" class="st3 st4 st5 st6">oikvmvlnkb;njkok\[p,vrs\p[,</tspan><tspan x="0" y="51" class="st3 st4 st5 st6">j</tspan></text>
</g>
</svg>
